<?xml version="1.0" standalone="no"?>
<!DOCTYPE svg PUBLIC "-//W3C//DTD SVG 20010904//EN"
 "http://www.w3.org/TR/2001/REC-SVG-20010904/DTD/svg10.dtd">
<svg version="1.0" xmlns="http://www.w3.org/2000/svg"
 width="1000.000000pt" height="1000.000000pt" viewBox="0 0 1000.000000 1000.000000"
 preserveAspectRatio="xMidYMid meet">

<g transform="translate(0.000000,1000.000000) scale(0.100000,-0.100000)"
fill="#000000" stroke="none">
<path d="M4690 9939 c-85 -4 -195 -13 -245 -19 -49 -5 -121 -14 -160 -19 -38
-4 -131 -21 -205 -36 -74 -15 -152 -30 -173 -32 -20 -3 -40 -9 -43 -14 -3 -5
-23 -9 -44 -9 -21 0 -42 -4 -45 -10 -3 -5 -17 -10 -30 -10 -13 0 -34 -4 -47
-9 -13 -5 -39 -13 -58 -19 -62 -17 -274 -84 -295 -92 -11 -4 -63 -25 -115 -45
-93 -37 -118 -46 -162 -64 -91 -36 -471 -224 -488 -241 -3 -3 -25 -16 -50 -29
-25 -13 -76 -44 -113 -68 -37 -23 -69 -43 -71 -43 -6 0 -287 -193 -311 -213
-11 -9 -58 -46 -104 -82 -288 -226 -590 -528 -816 -816 -36 -46 -73 -93 -82
-104 -20 -24 -213 -305 -213 -311 0 -2 -20 -34 -43 -71 -24 -37 -55 -88 -68
-113 -13 -25 -26 -47 -29 -50 -22 -22 -220 -428 -260 -535 -4 -11 -25 -63 -45
-115 -20 -52 -41 -104 -45 -115 -8 -21 -75 -233 -92 -295 -6 -19 -14 -45 -19
-58 -5 -13 -9 -34 -9 -47 0 -13 -4 -27 -10 -30 -5 -3 -10 -24 -10 -45 0 -21
-4 -41 -9 -44 -5 -3 -11 -23 -13 -43 -5 -36 -38 -212 -53 -278 -4 -16 -11 -61
-16 -100 -40 -313 -54 -639 -39 -952 14 -312 32 -473 75 -683 15 -74 30 -152
32 -173 3 -20 9 -40 14 -43 5 -3 9 -23 9 -44 0 -21 5 -42 10 -45 5 -3 10 -17
10 -30 0 -13 4 -34 9 -47 5 -13 13 -39 19 -58 17 -62 84 -274 92 -295 4 -11
25 -63 45 -115 37 -93 46 -118 64 -162 36 -91 224 -471 241 -488 3 -3 16 -25
29 -50 13 -25 44 -76 68 -113 23 -37 43 -69 43 -71 0 -6 193 -287 213 -311 9
-11 46 -58 82 -104 226 -288 528 -590 816 -816 46 -36 93 -73 104 -82 24 -20
305 -213 311 -213 2 0 34 -20 71 -43 37 -24 88 -55 113 -68 25 -13 47 -26 50
-29 22 -22 428 -220 535 -260 11 -4 63 -25 115 -45 52 -20 104 -41 115 -45 21
-8 233 -75 295 -92 19 -6 45 -14 58 -19 13 -5 33 -9 45 -9 13 0 27 -4 32 -9 6
-5 28 -11 50 -14 22 -3 58 -10 80 -15 22 -5 87 -19 145 -30 58 -11 119 -23
135 -27 17 -4 62 -11 100 -16 313 -40 639 -54 953 -39 130 6 275 15 322 20
139 16 223 28 255 35 17 4 77 16 135 27 58 11 123 25 145 30 22 5 58 12 80 15
22 3 44 9 50 14 5 5 19 9 32 9 12 0 32 4 45 9 13 5 39 13 58 19 62 17 274 84
295 92 11 4 63 25 115 45 52 20 104 41 115 45 107 40 513 238 535 260 3 3 25
16 50 29 25 13 76 44 113 68 37 23 69 43 71 43 6 0 287 193 311 213 11 9 57
45 102 80 288 226 594 532 820 820 35 45 70 90 78 99 19 23 215 308 215 313 0
3 20 35 43 72 24 37 55 88 68 113 13 25 26 47 29 50 17 17 205 397 241 488 18
44 27 69 64 162 20 52 41 104 45 115 8 21 75 233 92 295 6 19 14 45 19 58 5
13 9 33 9 45 0 13 4 27 9 33 5 5 11 27 14 49 3 22 10 58 15 80 5 22 19 87 30
145 11 58 23 119 27 135 7 32 19 116 35 255 5 47 14 192 20 323 15 313 1 639
-39 952 -5 39 -12 84 -16 100 -4 17 -16 77 -27 135 -11 58 -25 123 -30 145 -5
22 -12 58 -15 80 -3 22 -9 44 -14 50 -5 5 -9 19 -9 32 0 12 -4 32 -9 45 -5 13
-13 39 -19 58 -17 62 -84 274 -92 295 -4 11 -25 63 -45 115 -37 93 -46 118
-64 163 -36 90 -224 470 -241 487 -3 3 -16 25 -29 50 -13 25 -44 76 -68 113
-23 37 -43 69 -43 71 0 6 -193 287 -213 311 -9 11 -46 58 -82 104 -226 288
-528 590 -816 816 -46 36 -93 73 -104 82 -24 20 -305 213 -311 213 -2 0 -34
20 -71 43 -37 24 -88 55 -113 68 -25 13 -47 26 -50 29 -17 17 -408 210 -485
240 -11 4 -31 12 -45 18 -20 8 -119 47 -235 92 -21 8 -233 75 -295 92 -19 6
-45 14 -58 19 -13 5 -34 9 -47 9 -13 0 -27 5 -30 10 -3 6 -24 10 -45 10 -21 0
-41 4 -44 9 -3 5 -23 11 -43 14 -21 2 -99 17 -173 32 -129 27 -165 32 -360 55
-223 26 -573 33 -870 19z m1046 -2444 c10 -19 22 -35 26 -35 5 0 8 -5 8 -10 0
-6 4 -16 10 -23 55 -68 130 -175 130 -186 0 -5 4 -11 8 -13 10 -3 304 -421
408 -578 67 -101 172 -253 224 -324 14 -19 150 -211 302 -427 323 -458 391
-552 424 -588 13 -14 24 -31 24 -38 0 -6 4 -13 8 -15 8 -3 366 -506 431 -605
13 -20 32 -46 42 -57 11 -11 19 -23 19 -27 0 -4 6 -14 13 -21 22 -23 157 -218
157 -228 0 -4 4 -10 9 -12 7 -3 411 -572 480 -676 13 -19 32 -45 42 -56 11
-11 19 -23 19 -27 0 -4 6 -14 13 -21 28 -30 87 -119 87 -133 0 -13 -403 -15
-3572 -13 -3567 3 -3573 3 -3570 23 2 11 7 22 11 25 3 3 107 149 230 325 124
176 228 322 233 323 4 2 8 8 8 12 0 5 20 38 45 72 25 35 57 81 72 103 14 22
32 46 40 53 7 7 13 17 13 21 0 4 8 16 18 27 10 10 118 163 241 339 124 176
227 322 230 325 3 3 35 48 70 100 36 52 68 97 71 100 4 3 19 25 35 49 15 25
36 54 46 65 11 11 19 23 19 27 0 4 6 14 13 21 7 7 113 157 236 333 124 176
228 322 233 323 4 2 8 9 8 15 0 23 64 89 80 82 8 -4 50 -59 93 -123 43 -65
175 -254 293 -422 118 -168 226 -323 240 -344 15 -22 30 -44 35 -50 30 -36
113 -155 122 -173 5 -13 14 -23 19 -23 4 0 8 -6 8 -14 0 -8 4 -16 9 -18 4 -1
84 -111 176 -243 93 -132 188 -266 212 -297 23 -31 43 -61 43 -67 0 -6 3 -11
8 -11 4 0 48 -59 97 -130 50 -71 94 -129 99 -130 9 0 120 82 172 127 12 10 39
32 60 48 107 84 251 199 263 210 11 11 6 23 -30 71 -24 32 -51 69 -59 81 -8
12 -58 81 -110 153 -52 73 -106 149 -119 169 -13 20 -27 38 -31 41 -3 3 -55
75 -115 160 -60 85 -117 164 -127 174 -10 11 -18 23 -18 27 0 4 -6 14 -13 21
-11 12 -179 245 -217 302 -8 12 -30 41 -47 63 -18 23 -33 49 -33 58 0 14 111
180 131 195 3 3 17 22 30 42 42 63 262 372 276 386 7 7 13 17 13 21 0 4 8 16
18 27 9 10 64 86 121 167 57 81 109 154 117 162 8 7 14 16 14 20 0 3 4 11 10
18 32 39 67 88 165 227 60 85 112 157 117 158 4 2 8 8 8 14 0 6 15 29 33 52
18 23 64 85 101 139 42 61 74 97 85 97 10 0 26 -15 37 -35z"/>
</g>
</svg>
